PathFileType	4	(X/Y/Z)	Walk1_0-155.trc
DataRate	CameraRate	NumFrames	NumMarkers	Units	OrigDataRate	OrigDataStartFrame	OrigNumFrames
30	30	4	22	m	30	0	155
Frame#	Time	Hip			RHip			RKnee			RAnkle			RBigToe			RSmallToe			RHeel			LHip			LKnee			LAnkle			LBigToe			LSmallToe			LHeel			Neck			Head			Nose			RShoulder			RElbow			RWrist			LShoulder			LElbow			LWrist		
		X1	Y1	Z1	X2	Y2	Z2	X3	Y3	Z3	X4	Y4	Z4	X5	Y5	Z5	X6	Y6	Z6	X7	Y7	Z7	X8	Y8	Z8	X9	Y9	Z9	X10	Y10	Z10	X11	Y11	Z11	X12	Y12	Z12	X13	Y13	Z13	X14	Y14	Z14	X15	Y15	Z15	X16	Y16	Z16	X17	Y17	Z17	X18	Y18	Z18	X19	Y19	Z19	X20	Y20	Z20	X21	Y21	Z21	X22	Y22	Z22
1	0.03333333333333333	-2.5733731595697256	0.832240705340283	0.39230840924353255	-2.568389339217337	0.7990746937220322	0.4878749454165134	-2.5529455279553246	0.4356105383169766	0.508401394249644	-2.5737645692385955	0.08288970432986917	0.5091555692182952	-2.4020533825489685	-0.0020603948337611106	0.5502220577475785	-2.479237522683789	-0.022623743827543084	0.608499393734577	-2.6097485522331656	0.018153709426583245	0.4980383544089101	-2.573871457981843	0.7985371811662563	0.30932835507797324	-2.547237104716333	0.44966100178229196	0.2957877981050284	-2.572098546758257	0.08062220809092363	0.28503031866417744	-2.381389187085688	-0.006872668757248566	0.28008383556270416	-2.418951482458965	-0.013381372062357342	0.2086795503137611	-2.6246109257269796	-0.0011233976272705005	0.29283673306190067	-2.5630674336512054	1.5240734014757393	0.35084104071732763	-2.542593738570707	1.7856602600013018	0.3712127699001091	-2.415338958744981	1.6575285050905268	0.37521097697638495	-2.5582621999932202	1.3946039629279556	0.5846692594218567	-2.558425199819689	1.095547613966575	0.6284737517130762	-2.4834846805331043	0.8574637427516809	0.6126074164558721	-2.564460818215988	1.3969271385955606	0.20824145496125	-2.546570285365506	1.094952320646797	0.15569486011808015	-2.4838862264910455	0.8535435835844499	0.17108474737223717
2	0.06666666666666667	-2.5765511606420985	0.8373120644159127	0.3946721507109305	-2.5691860801329893	0.8052992431346858	0.4873399933620983	-2.5487254891556197	0.4404505037991811	0.5069818665191634	-2.56656398792445	0.08792629627742646	0.512315590394288	-2.4429987500144517	-0.017206359832532683	0.5343933756833851	-2.4827761728181588	-0.018557679473461788	0.6026558682011905	-2.6292038911937397	0.00816084393050573	0.49893855724003816	-2.5769885030369557	0.8028695097708973	0.3066058896412702	-2.549615668357362	0.4511898743192184	0.2930049590914314	-2.5714118466206064	0.0810492858927897	0.281206180693959	-2.381539093745239	-0.011641361099299537	0.2818141384714339	-2.4236763171051883	-0.016123927959933945	0.20760919042310794	-2.6220115745629635	0.0007895680691010409	0.30013560059894234	-2.533986620763513	1.5015652205045338	0.396440464598552	-2.5394810926728875	1.7852269663060845	0.36946585914174446	-2.4163374141376246	1.6541187840691396	0.36781752228464965	-2.5535496610078807	1.3914089510181331	0.5873469011624446	-2.5147568003032994	1.0802973613082338	0.6324632734269853	-2.4804397769401865	0.8553660838946932	0.6119746872706968	-2.566470673556221	1.3993870522418892	0.20797468625684842	-2.545416613029948	1.0990813419157044	0.15595885016562877	-2.482073239198981	0.8580804210780444	0.17222225003460015
3	0.1	-2.5788546245600537	0.8373700916906768	0.39259128754948797	-2.572218490100454	0.8064471997745132	0.4872035038696149	-2.5554350243253525	0.43954207769589804	0.5085870080246043	-2.575872259973328	0.08745127882993432	0.5147044218200966	-2.442940562536842	-0.014008292966331751	0.5319836586835477	-2.491861719437186	-0.010429210863104058	0.6220784988854833	-2.6354820970185164	0.007516006545921469	0.5025543198790052	-2.5755140642350987	0.8052986757427772	0.3046821321608209	-2.5495023134636945	0.4519407767689387	0.2939607590043369	-2.571886651801658	0.08052505753069183	0.28259692594761165	-2.3817688362816636	-0.009217306028631847	0.2801461684953144	-2.4216097604019176	-0.015196131914884578	0.2089199993177441	-2.624628667444987	0.0010936441454668252	0.3014833270584385	-2.534029015705977	1.500715890448116	0.3919572193144793	-2.531641580162256	1.7857833328994719	0.36720873475223986	-2.414150332683461	1.6541609833153281	0.36198160209112656	-2.5525228405862053	1.3915164938115243	0.5802309480290565	-2.555063629641325	1.0966058682734139	0.6215222159440242	-2.482147505016595	0.8566745742287668	0.6111736424384095	-2.565871333316868	1.398768454210828	0.20328632456240406	-2.5439340125412304	1.0993606277709949	0.15263717553740666	-2.480861822203577	0.8564071366858026	0.16904710579321874
4	0.13333333333333333	-2.5809236394415778	0.8378928748827755	0.39238705280741726	-2.5735790317071703	0.8094021779282933	0.4872491806143383	-2.553633590887342	0.4413566855343327	0.5073439129661054	-2.573806339396865	0.09263111671874594	0.516752292078802	-2.4437924531084056	-0.01479755853625366	0.5333274524597963	-2.486257573328314	-0.01974257644205849	0.6030536337945398	-2.6854094508082023	-0.013307204699295661	0.49713886180540745	-2.5773194326284794	0.8057829222520787	0.3063195895323361	-2.5469291927116458	0.4531050795804384	0.2942958696017317	-2.5695092797385106	0.08130659738491683	0.2838546856477575	-2.38172059600287	-0.009231349566743915	0.2805897281695847	-2.42128720211866	-0.014034544432772474	0.21004098600996898	-2.6227298919092505	0.0006522245145606188	0.3020949298085123	-2.530746085877228	1.501509417684638	0.39145996941827094	-2.5319326955577157	1.7865012322052545	0.3665369518157336	-2.414174202073773	1.6544982957020091	0.35741952449442366	-2.5484175548698373	1.3933923808029387	0.5788942033655905	-2.5542619540668032	1.0948854258312954	0.6205057873921987	-2.480123742170923	0.8545946749463966	0.6095968931176451	-2.563894304785516	1.4019844295091513	0.2006511672299912	-2.5437646923397343	1.1005250054290248	0.15287415109530905	-2.479253897034315	0.8580795891299731	0.16531728401636334
